<svg height="512" viewBox="0 0 64 64" width="512" xmlns="http://www.w3.org/2000/svg"><g id="Cart"><path d="m61 51v8a2 2 0 0 1 -4 0v-8z" fill="#ffd422"/><path d="m59 61h-16a2.006 2.006 0 0 1 -2-2v-22l2.66 4 2.67-4 2.66 4 2.67-4 2.67 4 2.67-4v22a2.006 2.006 0 0 0 2 2z" fill="#fee9ab"/><path d="m59 61h-4a2.006 2.006 0 0 1 -2-2v-19.99l1.33 1.99 2.67-4v22a2.006 2.006 0 0 0 2 2z" fill="#ebbf00"/><circle cx="47" cy="17" fill="#ff7956" r="14"/><circle cx="52" cy="22" fill="#fee9ab" r="3"/><circle cx="42" cy="12" fill="#fee9ab" r="3"/><path d="m34 37v12a2.006 2.006 0 0 1 -2 2h-18l-4-16h22a2.006 2.006 0 0 1 2 2z" fill="#57a4ff"/><path d="m34 37v12a2.006 2.006 0 0 1 -2 2h-4a2.006 2.006 0 0 0 2-2v-12a2.006 2.006 0 0 0 -2-2h4a2.006 2.006 0 0 1 2 2z" fill="#006df0"/><circle cx="31" cy="59" fill="#898890" r="2"/><circle cx="18" cy="59" fill="#898890" r="2"/><path d="m33 59a2 2 0 0 1 -3 1.73 2 2 0 0 0 0-3.46 2 2 0 0 1 3 1.73z" fill="#57565c"/><path d="m20 59a2 2 0 0 1 -3 1.73 2 2 0 0 0 0-3.46 2 2 0 0 1 3 1.73z" fill="#57565c"/><path d="m61 17a14 14 0 0 1 -14 14 14.6 14.6 0 0 1 -2-.14 14 14 0 0 0 0-27.72 14.6 14.6 0 0 1 2-.14 14 14 0 0 1 14 14z" fill="#ff5023"/><path d="m55 22a3 3 0 0 1 -4.5 2.6 3 3 0 0 0 0-5.2 3 3 0 0 1 4.5 2.6z" fill="#ffd422"/><path d="m45 12a3 3 0 0 1 -4.5 2.6 3 3 0 0 0 0-5.2 3 3 0 0 1 4.5 2.6z" fill="#ffd422"/><path d="m28 59a3 3 0 1 0 3-3 3 3 0 0 0 -3 3zm3-1a1 1 0 1 1 -1 1 1 1 0 0 1 1-1z"/><path d="m15 59a3 3 0 1 0 3-3 3 3 0 0 0 -3 3zm3-1a1 1 0 1 1 -1 1 1 1 0 0 1 1-1z"/><path d="m32 34h-21.465l-3.7-5.555a1 1 0 0 0 -.835-.445h-4v2h3.465l3.607 5.411 3.928 15.711v3.878a1 1 0 0 0 1 1h20v-2h-19v-2h17a3 3 0 0 0 3-3v-12a3 3 0 0 0 -3-3zm1 15a1 1 0 0 1 -1 1h-17.219l-3.5-14h20.719a1 1 0 0 1 1 1z"/><path d="m62 17a15 15 0 1 0 -15 15 15.017 15.017 0 0 0 15-15zm-28 0a13 13 0 1 1 13 13 13.015 13.015 0 0 1 -13-13z"/><path d="m36.183 16h21.633v2h-21.633z" transform="matrix(.555 -.832 .832 .555 6.784 46.676)"/><path d="m46 12a4 4 0 1 0 -4 4 4 4 0 0 0 4-4zm-6 0a2 2 0 1 1 2 2 2 2 0 0 1 -2-2z"/><path d="m48 22a4 4 0 1 0 4-4 4 4 0 0 0 -4 4zm6 0a2 2 0 1 1 -2-2 2 2 0 0 1 2 2z"/><path d="m13 23a1 1 0 0 0 .707-.293l4-4-1.414-1.414-2.293 2.293v-17.586h-2v17.586l-2.293-2.293-1.414 1.414 4 4a1 1 0 0 0 .707.293z"/><path d="m25 29a1 1 0 0 0 .707-.293l4-4-1.414-1.414-2.293 2.293v-17.586h-2v17.586l-2.293-2.293-1.414 1.414 4 4a1 1 0 0 0 .707.293z"/><path d="m61 50h-3v-13a1 1 0 0 0 -1.832-.555l-1.839 2.755-1.838-2.754a1 1 0 0 0 -1.664 0l-1.834 2.754-1.834-2.752a1.039 1.039 0 0 0 -1.664 0l-1.833 2.752-1.83-2.75a1 1 0 0 0 -1.832.55v22a3 3 0 0 0 3 3h16a3 3 0 0 0 3-3v-8a1 1 0 0 0 -1-1zm-19 9v-18.692l.83 1.246a1 1 0 0 0 1.664 0l1.833-2.754 1.834 2.752a1.039 1.039 0 0 0 1.664 0l1.835-2.752 1.84 2.755a1 1 0 0 0 1.664 0l.836-1.255v18.7a2.966 2.966 0 0 0 .184 1h-13.184a1 1 0 0 1 -1-1zm18 0a1 1 0 0 1 -2 0v-7h2z"/><path d="m44 44h10v2h-10z"/><path d="m44 50h10v2h-10z"/><path d="m44 56h10v2h-10z"/></g></svg>